inDegrees=no
num_controls=7
num_derivatives=13
num_iterations=112
num_multipliers=7
num_parameters=0
num_slacks=7
num_states=26
objective=0.444806
objective_accelerations=0.058141
objective_balance=0.003653
objective_effort=0.023500
objective_height=0.354013
objective_ligament=0.005500
solver_duration=1629.464433
status=Solve_Succeeded
success=true
DataType=double
version=3
OpenSimVersion=4.5
endheader
time	/jointset/ground_pelvis/pelvis_tilt/value	/jointset/ground_pelvis/pelvis_tx/value	/jointset/ground_pelvis/pelvis_ty/value	/jointset/hip_l/hip_flexion_l/value	/jointset/hip_l/hip_adduction_l/value	/jointset/hip_l/hip_rotation_l/value	/jointset/back/lumbar_extension/value	/jointset/patellofemoral_l/patellar_flexion_l/value	/jointset/knee_l/knee_flexion_l/value	/jointset/knee_l/knee_adduction_l/value	/jointset/knee_l/knee_rotation_l/value	/jointset/ankle_l/ankle_angle_l/value	/jointset/subtalar_l/subtalar_angle_l/value	/jointset/ground_pelvis/pelvis_tilt/speed	/jointset/ground_pelvis/pelvis_tx/speed	/jointset/ground_pelvis/pelvis_ty/speed	/jointset/hip_l/hip_flexion_l/speed	/jointset/hip_l/hip_adduction_l/speed	/jointset/hip_l/hip_rotation_l/speed	/jointset/back/lumbar_extension/speed	/jointset/patellofemoral_l/patellar_flexion_l/speed	/jointset/knee_l/knee_flexion_l/speed	/jointset/knee_l/knee_adduction_l/speed	/jointset/knee_l/knee_rotation_l/speed	/jointset/ankle_l/ankle_angle_l/speed	/jointset/subtalar_l/subtalar_angle_l/speed	/forceset/tau_hip_flexion_l	/forceset/tau_hip_adduction_l	/forceset/tau_hip_rotation_l	/forceset/tau_knee_flexion_l	/forceset/tau_ankle_angle_l	/forceset/tau_subtalar_angle_l	/forceset/tau_lumbar_extension	lambda_cid13_p0	lambda_cid13_p1	lambda_cid13_p2	lambda_cid13_p3	lambda_cid13_p4	lambda_cid13_p5	lambda_cid14_p0	/jointset/ground_pelvis/pelvis_tilt/accel	/jointset/ground_pelvis/pelvis_tx/accel	/jointset/ground_pelvis/pelvis_ty/accel	/jointset/hip_l/hip_flexion_l/accel	/jointset/hip_l/hip_adduction_l/accel	/jointset/hip_l/hip_rotation_l/accel	/jointset/back/lumbar_extension/accel	/jointset/patellofemoral_l/patellar_flexion_l/accel	/jointset/knee_l/knee_flexion_l/accel	/jointset/knee_l/knee_adduction_l/accel	/jointset/knee_l/knee_rotation_l/accel	/jointset/ankle_l/ankle_angle_l/accel	/jointset/subtalar_l/subtalar_angle_l/accel	gamma_cid13_p0	gamma_cid13_p1	gamma_cid13_p2	gamma_cid13_p3	gamma_cid13_p4	gamma_cid13_p5	gamma_cid14_p0
1	-0.5648011371640603	-0.08803385049039933	0.5668495965316459	1.872111668329636	-0.4667170401563709	0.0175235758760607	-0.2617961728650187	1.392350499553879	1.392350499553568	-0.08326707563431465	-0.1745292980092575	0.207534537450605	-0.01658391573908505	-0.01301027168790306	0.01112630957618909	0.005214578608178744	-0.01232189150342697	-0.002530859189643251	0.001136860077982423	8.869228840140443e-06	-0.003862461226499704	-0.003862461226498749	-0.006001144226419471	-8.771015029274851e-05	0.02070480708778681	0.008727787060993001	-0.3430150307141477	0.008830897174131215	0.000391956057583131	-0.301716850951547	0.04472738756978641	0.03305231855991606	0.2909697257932283	-25.74743652212072	-10.63295817359135	2.257668722608039	6.517243188880426	-645.5493441172996	-48.12548842165634	-1.265141464113325	1.571246899358439	0.267642878257131	2.022303697591434	-7.022717351787051	-0.1029607733667317	-2.36059525651515	-0.01950146847839082	-5.341792783982472	-5.34179278398243	-0.6196976027740591	-0.0278972832955675	-0.5743907222846438	-0.4253002278998853	4.094622647242484e-09	1.748397630838101e-08	-9.719638872577225e-09	2.614054449253747e-09	-2.981165751311466e-09	2.90516413787268e-08	1.289584625501199e-09
1.01	-0.5648536590149276	-0.08790926397957882	0.5670026970678794	1.871638683684548	-0.4667464372413118	0.01741571405553349	-0.2617960091532923	1.392044908118557	1.392044908118344	-0.08335523217485373	-0.1745302480031089	0.2077130141524887	-0.01651645952752743	0.002506816988780448	0.01379363378749963	0.02540039819482546	-0.08226370095534981	-0.003344410725712701	-0.02270487138001583	2.297743175324467e-05	-0.05725189179299853	-0.05725189179299836	-0.01162919950215838	-0.0001006121838465726	0.01498302960796411	0.004764049095773747	-0.3428570854443351	0.008931653483874398	0.0003735887295955576	-0.3015740617431769	0.04459680143834933	0.03307216935169821	0.2908542799669866	-25.77415813368935	-10.64151954919604	2.264309543399832	6.447176856066095	-645.3685247726619	-48.1420913368484	-1.271113274577571	1.542075718864741	0.2666738964576428	2.01594879613183	-6.978213977989966	-0.06993140980095068	-2.395316108224684	0.01173261190822894	-5.336925734612619	-5.336925734612766	-0.5342190778949054	0.01227406466994005	-0.5721962669092922	-0.3818266032647185	-4.466614558581736e-09	7.977425833507868e-09	3.238760362468102e-08	2.619901899347597e-09	-1.352607631396922e-08	8.430064827110192e-08	-1.162795843770552e-08
1.02	-0.5647509828056196	-0.08775792488586727	0.5673575013413655	1.870466620697721	-0.4667838456548279	0.01706956411686792	-0.2617957312300922	1.391205540869245	1.39120554086913	-0.08349964118573605	-0.174531274871652	0.2078340480783583	-0.01648862390010833	0.01802934034712171	0.01647682615439516	0.04555532605869665	-0.1521375598510752	-0.004133124904737148	-0.04652076354931479	3.171152394915759e-05	-0.1106176240246589	-0.1106176240246597	-0.01725163829474118	-0.0001030850951909669	0.009216251885012749	0.0008036702332835736	-0.3426991401745262	0.009032409793613604	0.0003552214015965418	-0.3014312725348064	0.0444662153069118	0.03309202014347523	0.2907388341407415	-25.80637721413872	-10.649050602449	2.270708777603722	6.396292969586208	-645.265896683126	-48.13600341654959	-1.287104267746412	1.572333835690001	0.2708165093741153	2.016125353036333	-7.009127240547545	-0.0979933019576765	-2.355427398775238	-0.02057629062186206	-5.337053117014796	-5.337053117014801	-0.6185743061428171	-0.0258114588535791	-0.5833907709103918	-0.4246284073540101	-1.241586311101131e-08	7.734826229747642e-11	7.493202459423422e-08	3.383601808075156e-09	-2.368573645076678e-08	1.37292238547578e-07	-2.381750620818545e-08
1.03	-0.5644930140680051	-0.08757964447481177	0.567913617889207	1.868596330574376	-0.4668289019123478	0.01648552292276822	-0.2617954003972143	1.389832729085221	1.389832729085169	-0.08370020051582203	-0.1745321695719034	0.2078971093059446	-0.01650027370526563	0.03356845673396055	0.01918478827490874	0.06565460995512733	-0.2218911841379908	-0.004861262818979391	-0.07026878142181762	3.368540026926588e-05	-0.1639316549607571	-0.1639316549607696	-0.02285336323798873	-6.150470021848722e-05	0.003380775906651043	-0.003121257149427997	-0.3422316094590305	0.009211842912055497	0.0003045543494844853	-0.3011438629989562	0.04438922848440397	0.03317620411721963	0.2904107591378042	-25.80061587155733	-10.6984912368403	2.292150203024356	6.282215954094005	-644.8505843276417	-48.19307918856811	-1.313340954050849	1.545304103309685	0.2716167317483481	2.004817044941264	-6.954092445901141	-0.05770448778858048	-2.381706988080052	0.01046877894992707	-5.326609135338988	-5.326609135340727	-0.5299552139324032	0.02132555758672583	-0.5859082570689816	-0.3745813864839358	-2.035886688126338e-08	-7.806336728263286e-09	1.174809065686068e-07	4.155034905156125e-09	-3.384146546076985e-08	1.902607939606265e-07	-3.59996254552702e-08
1.04	-0.5640795334538967	-0.08737411830887945	0.5686703247034117	1.866029381723533	-0.4668807356393362	0.01566455794862344	-0.2617950729151352	1.387927170781151	1.38792717078116	-0.08395657382044526	-0.1745322119144208	0.2079013593245932	-0.01655080408080087	0.04913171564595467	0.02192597712975981	0.08567337933135213	-0.2914693053504088	-0.005488618798464477	-0.09390551955801073	3.104136422901442e-05	-0.2171669280341217	-0.2171669280341458	-0.02841443320190362	6.738645131597581e-05	-0.002545989902508111	-0.006972443842308463	-0.3417640787435347	0.009391276030494732	0.0002538872973629847	-0.3008564534631064	0.04431224166189517	0.03326038809096023	0.2900826841348674	-25.80040791300568	-10.74691792166039	2.313382534939268	6.18750573607291	-644.5141106148913	-48.22806912210623	-1.350107711387784	1.577162340721068	0.2774618562415941	2.000022448995162	-6.974026625648007	-0.07783691500616732	-2.333171451513217	-0.02149987309397211	-5.321301544468092	-5.321301544468086	-0.6104433102762526	-0.0083493075410361	-0.6016487370699025	-0.4098802693877041	-2.670372002318141e-08	-1.142268772449339e-08	1.60980668129245e-07	6.57288687248241e-09	-4.298330274447085e-08	2.382763419942368e-07	-4.638565159168849e-08
1.05	-0.5635102803474402	-0.08714098878982963	0.5696267428739036	1.862767713756619	-0.4669380841451083	0.01460808537222154	-0.261794799314407	1.385489724474948	1.385489724474976	-0.08426826160695718	-0.174530146340431	0.2078458393362762	-0.01663918202529941	0.06472328177227819	0.02470778762006193	0.1055894772213873	-0.3608150080020896	-0.005936498755608906	-0.1173391487085157	2.408175366180534e-05	-0.2703025834582934	-0.2703025834583199	-0.03390416891247969	0.000402928998075668	-0.008577235572549757	-0.01065810733113144	-0.3409849298468339	0.009642165950869776	0.0001733254088207761	-0.300453067498979	0.04431041086544515	0.03341947977473817	0.2895398415465542	-25.75642618960456	-10.8437528881238	2.351711774212673	6.022309677755131	-643.8854977260412	-48.34343095888065	-1.397868228430105	1.550804324800017	0.2797216198394978	1.984276316436732	-6.907456943409202	-0.02159611159159741	-2.341016671233217	0.009766440677583503	-5.306723631622916	-5.306723631623256	-0.5154153896662433	0.0631372649213659	-0.6067454572444706	-0.3411755510056814	-3.299863095796403e-08	-1.490568453340068e-08	2.04510144676954e-07	9.04218942950385e-09	-5.209345591172491e-08	2.861371085472397e-07	-5.671554981839846e-08
1.06	-0.5627849814644788	-0.08687980497099378	0.5707816965947815	1.858814065791491	-0.4669985779655565	0.01331876489942821	-0.2617945832206395	1.382521516396457	1.382521516396504	-0.08463428208822144	-0.1745229990950361	0.2077294302962038	-0.01676306983716139	0.08034087094708388	0.02753683708696768	0.1253804894085853	-0.429865304993013	-0.006117681733674028	-0.140475098835586	1.953997172265107e-05	-0.3233192824917131	-0.3233192824917417	-0.03928097215177526	0.001083720710307427	-0.0147238002535187	-0.01407441731500052	-0.3402057809501303	0.009893055871238067	9.276352026710093e-05	-0.3000496815348526	0.04430858006899237	0.03357857145850613	0.2889969989582453	-25.71805501694544	-10.93952500294366	2.389779734372364	5.876614379579406	-643.3365945979998	-48.43799894314943	-1.457128116320863	1.582366950417495	0.2869096515623392	1.975005308427717	-6.914945493496525	-0.02449751919040617	-2.273635646826365	-0.02101630736839491	-5.297510266317633	-5.29751026631762	-0.5878568160201935	0.06070052555318519	-0.6247125392553464	-0.356009568397042	-4.075043858130879e-08	-2.284968350828184e-08	2.449579154683173e-07	1.037759645274834e-08	-6.198085523615295e-08	3.327915643908948e-07	-6.792259767844912e-08
1.07	-0.5619032976398795	-0.08659005427488212	0.5721338614158644	1.854171484201255	-0.4670595734780015	0.01179959258785633	-0.2617944329176794	1.379023827173274	1.379023827173278	-0.08505353884318731	-0.1745074624998114	0.2075508970231446	-0.01691984889106749	0.09600602519741099	0.03042491620958218	0.1450242937624545	-0.4985906167535456	-0.006035992573478442	-0.1633068630854224	9.846397987420974e-06	-0.3761902487178918	-0.3761902487179153	-0.04455071337804175	0.002072824920086249	-0.02100942767009702	-0.01723936315365745	-0.3391338423472617	0.01020624212762385	-2.129657061857575e-05	-0.2995132544659216	0.04438333289994406	0.03379400277252754	0.288257915088045	-25.63547940909292	-11.07431749887372	2.441849682835853	5.657749903601244	-642.4953476330204	-48.58672395767433	-1.528566468026756	1.560101326096623	0.29150150232385	1.954826319707097	-6.84227399715507	0.03128795401924855	-2.280121271340482	0.008952984167062729	-5.277626792290842	-5.277626792290095	-0.4936112404712204	0.1254701458164913	-0.6344728759759853	-0.2904612241465974	-4.857974070936432e-08	-3.103096983241695e-08	2.852417657407261e-07	1.165268988377064e-08	-7.190959744128175e-08	3.793818547712867e-07	-7.917630243389025e-08
